<?xml version="1.0" encoding="UTF-8" standalone="no"?>
<svg
   width="16"
   height="16"
   viewBox="0 0 16 16"
   version="1.1"
   id="svg1"
   sodipodi:docname="StackStateMachine.svg"
   inkscape:version="1.4.2 (ebf0e940d0, 2025-05-08)"
   xmlns:inkscape="http://www.inkscape.org/namespaces/inkscape"
   xmlns:sodipodi="http://sodipodi.sourceforge.net/DTD/sodipodi-0.dtd"
   xmlns="http://www.w3.org/2000/svg"
   xmlns:svg="http://www.w3.org/2000/svg">
  <defs
     id="defs1" />
  <sodipodi:namedview
     id="namedview1"
     pagecolor="#000000"
     bordercolor="#000000"
     borderopacity="0.25"
     inkscape:showpageshadow="2"
     inkscape:pageopacity="0.0"
     inkscape:pagecheckerboard="true"
     inkscape:deskcolor="#d1d1d1"
     inkscape:zoom="32"
     inkscape:cx="10.484375"
     inkscape:cy="7.140625"
     inkscape:window-width="1920"
     inkscape:window-height="1043"
     inkscape:window-x="0"
     inkscape:window-y="0"
     inkscape:window-maximized="1"
     inkscape:current-layer="svg1"
     showgrid="true">
    <inkscape:grid
       id="grid1"
       units="px"
       originx="0"
       originy="0"
       spacingx="1"
       spacingy="1"
       empcolor="#0099e5"
       empopacity="0.30196078"
       color="#0099e5"
       opacity="0.14901961"
       empspacing="4"
       enabled="true"
       visible="true" />
  </sodipodi:namedview>
  <path
     id="rect3"
     style="display:inline;fill:#e0e0e0;fill-opacity:1;stroke:none;stroke-width:2;stroke-linecap:round;stroke-linejoin:round;stroke-miterlimit:4.2;stroke-opacity:1;paint-order:stroke fill markers"
     d="M 7 -5 C 6.446 -5 6 -4.554 6 -4 L 6 -2 C 6 -1.446 6.446 -1 7 -1 L 7.4648438 -1 L 10.046875 2.8730469 C 10.658573 2.5456053 11.2531 2.1443643 11.929688 2.0917969 L 9.6875 -1.2714844 C 9.8803943 -1.4535658 10 -1.7125791 10 -2 L 10 -4 C 10 -4.554 9.554 -5 9 -5 L 7 -5 z M 5.9335938 0.001953125 A 1 1 0 0 0 5.8046875 0.01953125 A 1 1 0 0 0 5.1679688 0.4453125 L 1.4648438 6 L 1 6 C 0.446 6 0 6.446 0 7 L 0 9 C 0 9.554 0.446 10 1 10 L 3 10 C 3.554 10 4 9.554 4 9 L 4 7 C 4 6.7125792 3.8803942 6.4535658 3.6875 6.2714844 L 6.8320312 1.5546875 A 1 1 0 0 0 6.5546875 0.16796875 A 1 1 0 0 0 5.9335938 0.001953125 z M 6 7 A 1 1 0 0 0 5 8 A 1 1 0 0 0 6 9 L 7.0429688 9 C 6.9755725 8.3484051 6.9889474 7.6738766 7 7 L 6 7 z "
     transform="translate(0,5)" />
  <path
     id="rect1"
     style="display:inline;fill:#e0e0e0;fill-opacity:1;stroke:none;stroke-width:2.04702;stroke-linecap:round;stroke-linejoin:round;stroke-miterlimit:4.2;paint-order:stroke fill markers"
     d="m 16.512017,0.34190147 c -0.317962,0.2119749 -0.512342,0.50474339 -0.512342,0.82959563 l -2.87e-4,5.6556425 c 0,0.6497046 0.7838,1.1722382 1.758357,1.1722382 l 8.483464,-1.912e-4 c 0.974557,0 1.758878,-0.5228812 1.758878,-1.1725857 l -0.0019,-5.6542142 c 0,-0.6497046 -0.783801,-1.17223825655 -1.758358,-1.17223825655 L 17.758553,-0.00108858 c -0.487278,0 -0.928573,0.13101514 -1.246536,0.34299005 z m 3.346811,8.77826293 a 1.1163549,0.60175755 22.799887 0 0 -0.06212,0.6155741 1.1163549,0.60175755 22.799887 0 0 1.415039,0.6834195 l 9.565949,-0.181182 a 1.1164666,0.60181773 22.799887 0 0 0.578437,-0.3856255 l 0.271775,-6.377299 A 1.1163549,0.60175755 22.799887 0 0 30.602773,2.5316918 1.1163549,0.60175755 22.799887 0 0 29.524359,2.8439393 L 29.265491,8.844217 20.265074,9.0167961 a 1.1163549,0.60175755 22.799887 0 0 -0.406246,0.1033683 z m 3.674608,2.4497386 a 1.1163549,0.60175755 22.799887 0 0 -0.06212,0.615574 1.1163549,0.60175755 22.799887 0 0 1.415039,0.68342 l 9.565949,-0.181183 a 1.1164666,0.60181773 22.799887 0 0 0.578437,-0.385625 l 0.271775,-6.3772989 a 1.1163549,0.60175755 22.799887 0 0 -1.02513,-0.9433597 1.1163549,0.60175755 22.799887 0 0 -1.078414,0.3122475 l -0.258869,6.0002781 -9.000416,0.172579 a 1.1163549,0.60175755 22.799887 0 0 -0.406246,0.103368 z"
     transform="matrix(0.36503039,0.21792682,-0.5475456,0.32689022,6.1647147,4.2898244)" />
</svg>
