<?xml version="1.0" encoding="UTF-8" standalone="no"?>
<svg
   width="16"
   height="16"
   version="1.1"
   id="svg3"
   sodipodi:docname="InputEventAction.svg"
   inkscape:version="1.4 (e7c3feb100, 2024-10-09)"
   xmlns:inkscape="http://www.inkscape.org/namespaces/inkscape"
   xmlns:sodipodi="http://sodipodi.sourceforge.net/DTD/sodipodi-0.dtd"
   xmlns="http://www.w3.org/2000/svg"
   xmlns:svg="http://www.w3.org/2000/svg">
  <defs
     id="defs3" />
  <sodipodi:namedview
     id="namedview3"
     pagecolor="#505050"
     bordercolor="#eeeeee"
     borderopacity="1"
     inkscape:showpageshadow="0"
     inkscape:pageopacity="0"
     inkscape:pagecheckerboard="0"
     inkscape:deskcolor="#505050"
     inkscape:zoom="29.43332"
     inkscape:cx="6.8629703"
     inkscape:cy="8.9014764"
     inkscape:window-width="1920"
     inkscape:window-height="1044"
     inkscape:window-x="0"
     inkscape:window-y="0"
     inkscape:window-maximized="1"
     inkscape:current-layer="svg3" />
  <path
     id="path1"
     style="stroke-width:0.999999;fill:#69c4d4;fill-opacity:1"
     d="M 3.8066406 2.65625 C 3.2344437 2.65625 2.7695313 3.1192095 2.7695312 3.6914062 L 2.7695312 13.015625 C 2.7695312 13.587822 3.2344437 14.052734 3.8066406 14.052734 L 12.09375 14.052734 C 12.665947 14.052734 13.130859 13.587822 13.130859 13.015625 L 13.130859 3.6914062 C 13.130859 3.1192095 12.665947 2.65625 12.09375 2.65625 L 3.8066406 2.65625 z M 8.7714844 4.2851562 A 0.75 0.75 0 0 1 9.4199219 4.4960938 L 11.691406 6.7675781 A 0.750075 0.750075 0 0 1 11.160156 8.0488281 L 4.7402344 8.0488281 A 0.75 0.75 0 0 1 3.9902344 7.2988281 A 0.75 0.75 0 0 1 4.7402344 6.5488281 L 9.3515625 6.5488281 L 8.359375 5.5566406 A 0.75 0.75 0 0 1 8.359375 4.4960938 A 0.75 0.75 0 0 1 8.7714844 4.2851562 z M 4.7402344 8.6601562 L 11.160156 8.6601562 A 0.75 0.75 0 0 1 11.910156 9.4101562 A 0.75 0.75 0 0 1 11.160156 10.160156 L 6.5507812 10.160156 L 7.5410156 11.150391 A 0.75 0.75 0 0 1 7.5410156 12.210938 A 0.75 0.75 0 0 1 6.4804688 12.210938 L 4.2089844 9.9414062 A 0.750075 0.750075 0 0 1 4.7402344 8.6601562 z " />
  <path
     fill="#e0e0e0"
     d="M 0.6976211,4.3134046 V 13.637892 A 2.0721082,2.0721082 0 0 0 2.7697293,15.71 H 13.130271 a 2.0721082,2.0721082 0 0 0 2.072108,-2.072108 V 4.3134046 h -1.036054 v 9.3244874 a 1.0360541,1.0360541 0 0 1 -1.036054,1.036054 H 2.7697293 A 1.0360541,1.0360541 0 0 1 1.7336752,13.637892 V 4.3134046 Z"
     id="path2"
     style="stroke-width:0.999999" />
</svg>
