<?xml version="1.0" encoding="UTF-8" standalone="no"?>
<svg
   width="16"
   height="16"
   viewBox="0 0 16 16"
   version="1.1"
   id="svg1"
   sodipodi:docname="Player.svg"
   inkscape:version="1.4 (e7c3feb100, 2024-10-09)"
   xmlns:inkscape="http://www.inkscape.org/namespaces/inkscape"
   xmlns:sodipodi="http://sodipodi.sourceforge.net/DTD/sodipodi-0.dtd"
   xmlns="http://www.w3.org/2000/svg"
   xmlns:svg="http://www.w3.org/2000/svg">
  <defs
     id="defs1" />
  <sodipodi:namedview
     id="namedview1"
     pagecolor="#ffffff"
     bordercolor="#000000"
     borderopacity="0.25"
     inkscape:showpageshadow="2"
     inkscape:pageopacity="0.0"
     inkscape:pagecheckerboard="0"
     inkscape:deskcolor="#d1d1d1"
     inkscape:zoom="8"
     inkscape:cx="-3.125"
     inkscape:cy="-1"
     inkscape:window-width="1920"
     inkscape:window-height="1044"
     inkscape:window-x="0"
     inkscape:window-y="0"
     inkscape:window-maximized="1"
     inkscape:current-layer="svg1" />
  <path
     fill="#e0e0e0"
     d="M 12.588725,15.10076 V 13.870198 A 0.82037451,0.82037451 0 0 0 11.76835,13.049824 H 11.358163 L 12.670762,9.7683257 A 3.281498,3.281498 0 1 0 9.7994513,8.6198014 L 7.9946273,13.049824 H 7.4203652 a 0.82037451,0.82037451 0 0 0 -0.8203745,0.820374 v 1.230562 z"
     id="path2"
     style="display:inline;stroke-width:1" />
  <path
     id="path3"
     style="fill:#e0e0e0;stroke-width:1.5;stroke-linecap:round;stroke-linejoin:round;paint-order:stroke markers fill"
     d="M 6.28125 1.4453125 A 4.450171 4.450171 0 0 0 1.8320312 5.8945312 A 4.450171 4.450171 0 0 0 6.28125 10.345703 A 4.450171 4.450171 0 0 0 8.1972656 9.9023438 L 8.6953125 8.6777344 C 7.7597447 7.1234782 7.9114549 5.2819483 8.8398438 3.9980469 C 9.0879215 3.6549713 9.3900758 3.3472198 9.734375 3.0878906 A 4.450171 4.450171 0 0 0 6.28125 1.4453125 z M 6.28125 10.345703 A 4.755908 4.755908 0 0 0 1.5253906 15.101562 L 5.5996094 15.101562 L 5.5996094 13.871094 C 5.59961 12.877574 6.4264019 12.050781 7.4199219 12.050781 L 7.3222656 12.050781 L 7.9003906 10.630859 A 4.755908 4.755908 0 0 0 6.28125 10.345703 z " />
</svg>
