<?xml version="1.0" encoding="UTF-8" standalone="no"?>
<svg
   width="16"
   height="16"
   version="1.1"
   id="svg3"
   sodipodi:docname="JoypadActionEcho.svg"
   inkscape:version="1.4 (e7c3feb100, 2024-10-09)"
   xml:space="preserve"
   xmlns:inkscape="http://www.inkscape.org/namespaces/inkscape"
   xmlns:sodipodi="http://sodipodi.sourceforge.net/DTD/sodipodi-0.dtd"
   xmlns="http://www.w3.org/2000/svg"
   xmlns:svg="http://www.w3.org/2000/svg"><defs
     id="defs3" /><sodipodi:namedview
     id="namedview3"
     pagecolor="#505050"
     bordercolor="#eeeeee"
     borderopacity="1"
     inkscape:showpageshadow="0"
     inkscape:pageopacity="0"
     inkscape:pagecheckerboard="0"
     inkscape:deskcolor="#505050"
     inkscape:zoom="10.40625"
     inkscape:cx="22.102102"
     inkscape:cy="-0.76876877"
     inkscape:window-width="1920"
     inkscape:window-height="1044"
     inkscape:window-x="0"
     inkscape:window-y="0"
     inkscape:window-maximized="1"
     inkscape:current-layer="svg3" /><path
     id="path1"
     d="M 4.5507812 5 C 4.0813393 5 3.6992187 5.3801674 3.6992188 5.8496094 L 3.6992188 13.5 C 3.6992188 13.969442 4.0813393 14.349609 4.5507812 14.349609 L 11.349609 14.349609 C 11.819051 14.349609 12.199219 13.969442 12.199219 13.5 L 12.199219 5.8496094 C 12.199219 5.3801674 11.819051 5 11.349609 5 L 4.5507812 5 z M 9.7324219 5.4960938 A 2.4040169 2.4040169 0 0 1 9.1035156 10.119141 L 8.1425781 12.523438 L 8.4433594 12.523438 A 0.60100422 0.60100422 0 0 1 9.0429688 13.123047 L 9.0429688 14.025391 L 4.65625 14.025391 L 4.65625 13.123047 A 0.60100422 0.60100422 0 0 1 5.2578125 12.523438 L 5.6777344 12.523438 L 7 9.2773438 A 2.4040169 2.4040169 0 0 1 9.7324219 5.4960938 z "
     style="fill:#69c4d4;fill-opacity:1" /><path
     fill="#e0e0e0"
     d="M2 6.36v7.65a1.7 1.7 0 0 0 1.7 1.7h8.5a1.7 1.7 0 0 0 1.7-1.7V6.36h-.85v7.65a.85.85 0 0 1-.85.85H3.7a.85.85 0 0 1-.85-.85V6.36z"
     id="path2" /><path
     style="fill:#69c4d4;stroke-linecap:round;stroke-linejoin:round;paint-order:stroke markers fill"
     d="m 8,0.16015625 c -2.1278491,0 -3.8632812,1.73543215 -3.8632813,3.86328125 a 0.5,0.5 0 0 0 0.5,0.5 0.5,0.5 0 0 0 0.5,-0.5 C 5.1367187,2.4360285 6.412591,1.1601562 8,1.1601562 c 1.587409,0 2.863281,1.2758723 2.863281,2.8632813 a 0.5,0.5 0 0 0 0.5,0.5 0.5,0.5 0 0 0 0.5,-0.5 C 11.863281,1.8955884 10.127849,0.16015625 8,0.16015625 Z"
     id="path3" /><path
     style="fill:#69c4d4;stroke-linecap:round;stroke-linejoin:round;paint-order:stroke markers fill"
     d="m 8,1.9609375 c -1.2158006,0 -2.2695312,0.8934639 -2.2695313,2.0625 a 0.5,0.5 0 0 0 0.5,0.5 0.5,0.5 0 0 0 0.5,-0.5 c 0,-0.5572455 0.5311416,-1.0625 1.2695313,-1.0625 0.7383897,0 1.2695312,0.5052545 1.2695313,1.0625 a 0.5,0.5 0 0 0 0.5,0.5 0.5,0.5 0 0 0 0.4999997,-0.5 c 0,-1.1690361 -1.0537304,-2.0625 -2.269531,-2.0625 z"
     id="path4" /></svg>
